<svg xmlns="http://www.w3.org/2000/svg" width="319" height="366.562" viewBox="0 0 319 366.562">
  <g id="slide1" transform="translate(-49.084 -140.294)">
    <text id="Request_Laundry" data-name="Request Laundry" transform="translate(49.084 492.856)" fill="#191a1e" font-size="44" font-family="Perpetua-Bold, Perpetua" font-weight="700"><tspan x="0" y="0">Request Laundry</tspan></text>
    <path id="Path_101" data-name="Path 101" d="M185.231,84.936c-16.447-.571-32.111-5.882-47.07-11.691S108.385,61,92.329,57.922C82.005,55.941,70.2,55.662,61.876,61.2,53.87,66.524,51.284,75.72,49.892,84.254c-1.046,6.421-1.66,13.176,1.205,19.188,1.99,4.171,5.525,7.679,7.961,11.675,8.5,13.908,2.5,31.056-6.723,44.637C48.013,166.122,43,172.2,39.661,178.98s-4.872,14.55-1.94,21.478c2.893,6.855,9.78,12,17.257,15.628,15.157,7.344,33.032,9.45,50.462,10.642,38.584,2.638,77.376,1.5,116.062.353,14.316-.425,28.7-.853,42.781-3.068,7.822-1.228,15.9-3.184,21.576-7.89,7.208-5.98,9-16.106,4.165-23.6-8.1-12.578-30.5-15.694-36.164-29.2-3.118-7.428.084-15.705,4.615-22.595,9.717-14.784,26-27.749,26.862-44.646.591-11.6-7.24-23.227-19.347-28.718-12.692-5.754-30.287-5.031-39.651,4.5C216.7,81.666,199.753,85.439,185.231,84.936Z" transform="translate(54.832 83.669)" opacity="0.1"/>
    <g id="washing-machine" transform="translate(156.234 164.403)">
      <path id="Path_31" data-name="Path 31" d="M140.392,0H67.508A11.508,11.508,0,0,0,56,11.508V21.817a1.2,1.2,0,0,0,1.2,1.2h93.5a1.2,1.2,0,0,0,1.2-1.2V11.508A11.508,11.508,0,0,0,140.392,0Zm-21.1,15.344h-1.918a3.836,3.836,0,0,1,0-7.672h1.918a3.836,3.836,0,1,1,0,7.672Zm15.344,0H132.72a3.836,3.836,0,1,1,0-7.672h1.918a3.836,3.836,0,0,1,0,7.672Z" transform="translate(-56)"/>
      <path id="Path_32" data-name="Path 32" d="M56,129.2v87.03a3.836,3.836,0,0,0,3.836,3.836h88.228a3.836,3.836,0,0,0,3.836-3.836V129.2a1.2,1.2,0,0,0-1.2-1.2H57.2A1.2,1.2,0,0,0,56,129.2Zm47.95,10.309a30.688,30.688,0,1,1-30.688,30.686A30.723,30.723,0,0,1,103.95,139.508Z" transform="translate(-56 -97.312)"/>
      <path id="Path_33" data-name="Path 33" d="M183.834,328.719a23.055,23.055,0,0,0,21.643-15.181,1.2,1.2,0,0,0-1.4-1.578,32.047,32.047,0,0,1-7.357.905c-14.632,0-18.227-10.645-34.838-4.947a1.2,1.2,0,0,0-.8,1.314A23.051,23.051,0,0,0,183.834,328.719Z" transform="translate(-135.884 -232.819)"/>
      <path id="Path_34" data-name="Path 34" d="M188.649,227.489c5.755,2.466,10.8,4.625,20.439,1.313a1.2,1.2,0,0,0,.8-1.314,23.017,23.017,0,0,0-44.386-4.31,1.2,1.2,0,0,0,1.4,1.577C176.83,222.426,183.04,225.086,188.649,227.489Z" transform="translate(-139.189 -158.132)"/>
    </g>
    <g id="Group_24" data-name="Group 24" transform="translate(227.771 235.152)">
      <ellipse id="Ellipse_2" data-name="Ellipse 2" cx="49.635" cy="47.981" rx="49.635" ry="47.981" transform="translate(0 0)" fill="#f2eaea"/>
      <g id="laundry" transform="translate(23.619 19.203)">
        <path id="Path_25" data-name="Path 25" d="M157.642,82.062,149.98,74.4,144,77.827V96.243c.154-.051.757-.3,1.155-.462a1.029,1.029,0,0,1,.757,0l.462.18a32.242,32.242,0,0,0,12,2.31A1.03,1.03,0,0,1,159.4,99.3v11.9a16.954,16.954,0,0,1-1.117,6.07h4.2V78.686l-3.375,3.375A1.023,1.023,0,0,1,157.642,82.062Z" transform="translate(-133.733 -69.023)"/>
        <path id="Path_26" data-name="Path 26" d="M251.3,32.5l5.737,5.737,5.737-5.737Z" transform="translate(-227.263 -32.5)"/>
        <path id="Path_27" data-name="Path 27" d="M75.807,257.3a.646.646,0,0,0-.154.026A34.236,34.236,0,0,1,64,259.738v10.9a14.994,14.994,0,0,0,8.3,13.424l3.5,1.758,3.5-1.758a14.994,14.994,0,0,0,8.3-13.424v-10.9a34.236,34.236,0,0,1-11.653-2.413A.646.646,0,0,0,75.807,257.3Zm8.432,9.856-7.7,7.7a1.03,1.03,0,0,1-1.45,0l-3.208-3.208,1.45-1.45,2.477,2.477,6.969-6.969Zm-5.095-1.373a6.66,6.66,0,1,0,3.337,5.775h2.053A8.706,8.706,0,1,1,80.183,264Z" transform="translate(-64 -228.45)"/>
        <path id="Path_28" data-name="Path 28" d="M0,0H5.21V9.561H0Z" transform="translate(17.872 4.106) rotate(-45)"/>
        <path id="Path_29" data-name="Path 29" d="M316.487,74.4l-7.662,7.662a1.03,1.03,0,0,1-1.45,0L304,78.686v38.59h14.374a4.1,4.1,0,0,0,4.107-4.107V77.827Zm-8.38,35.69h-2.053v-2.053h2.053Zm0-7.187h-2.053V100.85h2.053Zm0-7.187h-2.053V93.663h2.053Zm0-7.187h-2.053V86.476h2.053Z" transform="translate(-273.2 -69.023)"/>
        <path id="Path_30" data-name="Path 30" d="M0,0H9.561V5.21H0Z" transform="translate(31.218 7.192) rotate(-45)"/>
      </g>
    </g>
  </g>
</svg>
